<svg xmlns="http://www.w3.org/2000/svg" width="24" height="24" viewBox="0 0 24 24" id="stopwatch">
  <path fill="none" d="M0,0H24V24H0Z"></path>
  <path fill="#2563eb" d="M176.951,32.529a.9.9,0,1,1,0-1.273A.9.9,0,0,1,176.951,32.529Zm.251,6.577a8.1,8.1,0,1,1-8.1-8.1A8.1,8.1,0,0,1,177.2,39.106Zm-1.8,0a6.3,6.3,0,1,0-6.3,6.3A6.3,6.3,0,0,0,175.4,39.106Zm-6.3-4.8a.9.9,0,0,0-.9.9v3.6a.9.9,0,0,0,1.8,0v-3.6A.9.9,0,0,0,169.1,34.306Zm3.556-4.692a.9.9,0,0,0-.576-1.135,9.648,9.648,0,0,0-5.959,0,.9.9,0,1,0,.559,1.711,7.839,7.839,0,0,1,4.842,0,.9.9,0,0,0,1.135-.576Z" transform="translate(-157.1 -25.607)"></path>
</svg>
